# xmcd
#
# Track frame offsets:
#        150
#        27372
#        53725
#        82539
#
# Disc length: 1493 seconds
#
# Revision: 1
# Processed by: cddbd v1.5.1PL0 Copyright (c) Steve Scherf et al.
# Submitted via: ExactAudioCopy v0.95a5
#
DISCID=1f05d304
DTITLE=M-PROJECT - DIGITAL ALCHEMIST
DYEAR=2004
DGENRE=Hardcore
TTITLE0=3030(Extended Edit)
TTITLE1=PUSSY CAT
TTITLE2=KOMA
TTITLE3=BCC
EXTD=
EXTT0=
EXTT1=
EXTT2=
EXTT3=
PLAYORDER=
